<svg xmlns="http://www.w3.org/2000/svg" viewBox="0 0 42 41">
  <path
    fill="#383c42"
    fill-rule="evenodd"
    d="M9.327 25.504c-1.25.57-3.69 1.84-3.46 3.22.32.85 1.31 0 1.68-.4a6.783 6.783 0 0 0 1.78-2.77v-.05Zm7.48-2.99c-.83 2.17-3.25 3.2-3.92 2.83-.34-.18 0-.87 0-1.34-.49.19-1.3.55-1.79.75a5 5 0 0 1 0 7.59c2 3 1 5.58-1.79 7.59l-.11.07-.06-.2a9.488 9.488 0 0 0-1.92-3.77c-.49-.57-1.05-1.09-1.6-1.61-.72-.68-1.42-1.38-2.07-2.12-2.75-2.88-3.84-7.95-3.48-11.87a15.6 15.6 0 0 1 1.74-5.75 17.628 17.628 0 0 1 2.8-3.91 21.806 21.806 0 0 1 9.07-5.67 15.038 15.038 0 0 1 9.32.43c.541.287 1.057.622 1.54 1l.71.67.08.08 13.37-6.85c1.1-.55 1.93-.55 2.3-.15.37.4-.15 1.43-.93 2l-11.5 8.31c.137.793-.099 1.604-.64 2.2 1.53.53.18 2.77-.49 3.57-1.92 2.27-5.43 4.05-8.56 5.35-.84.36-1.32.51-2.07.79v.01Z"
  />
  <path
    fill="#31d3db"
    fill-rule="evenodd"
    d="M27.297 14.664c.86-1.08.26-1.7-.34-1.1a5.06 5.06 0 0 1-4.57 1.36c-2.35-.39-2.46-.75-2.06-1.1 2.728.918 5.734-.102 7.34-2.49.58-.83-1.36-1.49-2.5-3-5.48-7.44-22.64-.99-24.28 11.94-.54 4.036.647 8.114 3.27 11.23 2 2.269 4.18 3.22 5.41 6.79 2.4-2.06 2-4.39.27-6.43 1.258-.638 2.086-1.892 2.181-3.3.094-1.407-.559-2.759-1.721-3.56-1 3.61-4.51 6.28-5.33 3.72-.53-2.61 3.77-4.34 10.65-7 5.76-2.16 9.48-3.94 11.68-7.12"
  />
  <path
    fill="#fff"
    fill-rule="evenodd"
    d="M27.296 14.664c.86-1.08.26-1.7-.34-1.1a5.06 5.06 0 0 1-3.96 1.44c-2.37-.17-4.26-.64-6-.45a17.199 17.199 0 0 0-8.52 4.32c-3 3.08-6.32 9.479-3 10.72a1.06 1.06 0 0 1-.48-.86c-.53-2.61 3.77-4.341 10.65-7.001 5.76-2.16 9.48-3.94 11.68-7.12"
    opacity=".92"
  />
  <path
    fill="#31d3db"
    fill-rule="evenodd"
    d="M12.546 19.714c1.77.87 1.42 3.91 1.16 4.67 3.36-1 2.36-5.93 3.92-7.45-2-.06-5.62 1.91-5.08 2.78"
  />
  <path
    fill="#383c42"
    fill-rule="evenodd"
    d="M18.226 10.694a1 1 0 1 1 1.31 1.51 1 1 0 0 1-1.31-1.51"
  />
  <path
    fill="#31d3db"
    fill-rule="evenodd"
    d="M26.386 11.104 39.876 1.714c.38-.27.88-.85.67-1.13-.21-.28-.79-.13-1.29.1l-14.58 7.88c-.47 1 .48 3.05 1.72 2.54"
  />
  <path
    fill="#fff"
    fill-rule="evenodd"
    d="m25.176 9.254 14.09-8.25c.364-.248.79-.387 1.23-.4-.21-.24-.79-.1-1.27.13l-14.58 7.83c-.294.941.069 1.964.89 2.51a3.583 3.583 0 0 1-.36-1.84"
    opacity=".92"
  />
  <path
    fill="#21aaad"
    fill-rule="evenodd"
    d="M3.266 13.354a.94.94 0 1 1 1.15 1.46.94.94 0 0 1-1.15-1.46m2.82-3.008a.83.83 0 1 1 1.08 1.26.83.83 0 0 1-1.08-1.26m8.6-3.99a.86.86 0 1 1 1.62.57.86.86 0 0 1-1.62-.57m2.61-.415a.7.7 0 1 1 1.26.62.7.7 0 0 1-1.26-.62m-10.452 6.29a.55.55 0 1 1 .64.89.55.55 0 0 1-.64-.89m-4.291 3.52a.58.58 0 1 1 .69.94.58.58 0 0 1-.69-.94M27.537 6.684l-.63.32a2.95 2.95 0 0 0 1.34 2.21 4.08 4.08 0 0 1-.71-2.53Zm3.31-1.82-.55.3a2.5 2.5 0 0 0 1.13 1.84 3.6 3.6 0 0 1-.53-2.14h-.05Zm3.32-1.8-.42.23c0 .54.39 1.35.83 1.46a2.58 2.58 0 0 1-.36-1.69h-.05Zm3.2-1.72-.37.2c.09.441.326.839.67 1.13a3.3 3.3 0 0 1-.3-1.33Z"
  />
</svg>
