<svg xmlns="http://www.w3.org/2000/svg" width="200" height="190.51" class="icon" viewBox="0 0 1075 1024"><path fill="#f09d13" d="M556.032 909.312a375 375 0 0 1-86.886-17.408c-79.31-26.01-146.637-78.336-195.84-151.91-13.62-20.43-18.79-32.461-19.559-45.568-.512-9.216.41-13.415 4.352-19.252a19.56 19.56 0 0 1 8.807-7.27c5.632-2.867 6.45-3.072 14.336-2.97 18.227.103 32.614 8.96 49.05 30.106 3.122 3.994 11.878 16.282 19.455 27.29 15.565 22.732 27.392 38.707 37.888 51.353 9.319 11.06 26.112 27.904 35.43 35.328 15.156 12.135 50.996 31.283 76.8 41.114 84.122 32.051 170.394 29.03 256.308-8.96a382.5 382.5 0 0 0 118.63-82.33c10.752-11.264 14.49-14.131 16.487-12.441 1.74 1.382 1.382 6.4-.717 10.496-4.455 8.704-18.79 25.6-36.557 42.905a350.3 350.3 0 0 1-96.973 68.301c-57.753 28.518-115.302 42.086-176.64 41.626-11.52-.103-22.528-.256-24.422-.461zm-57.037-272.538c-7.782-1.382-6.502-9.216 2.816-17.356 7.68-6.656 25.549-15.156 47.309-22.375 14.694-4.864 16.435-6.246 16.384-13.056-.102-10.496-8.55-20.787-31.642-38.4a63.334 63.334 0 0 1-15.564-81.1c9.42-15.617 26.47-28.365 43.417-32.513 29.184-7.116 51.917 1.178 62.464 22.784 4.045 8.192 6.656 17.255 5.837 20.43s-3.38 2.56-9.882-2.407c-9.37-7.168-15.718-9.83-24.73-10.189-9.215-.358-15.052 1.331-20.018 5.786-5.735 5.17-7.168 8.908-7.168 18.432-.052 7.577.204 8.806 2.764 14.233 13.67 28.877 57.959 34.458 88.935 11.162 10.086-7.578 22.528-28.57 26.265-44.083 1.536-6.554 1.792-9.728 1.434-19.15a50.5 50.5 0 0 0-2.97-18.84c-5.632-16.129-12.441-24.833-24.37-31.028-18.228-9.42-41.063-11.93-72.09-7.987-26.42 3.379-54.221 2.15-70.759-3.072-7.219-2.304-9.779-4.147-9.779-7.066 0-2.406.82-2.662 10.906-3.379 15.462-1.126 32.46-5.325 59.852-14.848 9.012-3.072 20.173-6.605 24.832-7.782 28.365-7.168 58.317-9.114 80.384-5.274 9.421 1.638 20.788 7.27 29.44 14.592 25.19 21.3 49.613 64.563 69.376 122.88 6.144 18.074 11.725 30.464 18.33 40.55 14.95 22.733 34.816 36.608 59.904 41.882 2.867.614 10.086 1.075 16.077 1.024a79.36 79.36 0 0 0 36.352-8.5c22.016-10.444 35.43-26.828 42.137-51.609 2.51-9.062 2.765-30.822.512-39.424-5.222-19.558-17.817-32.46-37.632-38.349-8.704-2.56-28.057-3.328-34.201-1.28A31.8 31.8 0 0 0 864.46 450.1c-1.587 3.994-1.997 6.759-2.048 14.49 0 8.601.205 10.086 2.304 14.54 6.297 13.466 18.278 19.815 37.376 19.866 9.42 0 10.905.768 9.933 5.12-1.024 4.864-6.4 8.141-15.872 9.575a60.47 60.47 0 0 1-35.738-4.71 54.73 54.73 0 0 1-26.112-30.311 52.74 52.74 0 0 1-.768-27.546c1.946-7.68 8.243-20.224 13.363-26.521 14.439-17.92 38.451-27.085 64.41-24.679 36.352 3.328 64.512 23.143 76.902 54.17 10.087 25.139 10.445 65.177.768 90.163-13.005 33.792-44.339 59.136-87.04 70.4-34.099 8.96-61.645 8.858-89.241-.307a156.7 156.7 0 0 1-51.508-30.464c-7.987-7.475-10.65-8.397-10.65-3.584 0 2.457 1.23 4.557 6.554 11.11 8.346 10.343 12.135 17.715 11.418 22.272-.717 4.455-3.738 6.912-9.472 7.578-6.707.819-92.262.153-94.003-.717-3.789-1.843.41-11.264 7.321-16.282a39.7 39.7 0 0 1 17.87-7.27c6.655-1.229 8.96-2.714 8.96-5.683 0-.768-1.998-5.274-4.404-10.087a94.4 94.4 0 0 1-8.294-26.214c-.87-4.66-6.4-2.611-11.572 4.25-8.96 12.032-15.155 31.027-19.25 58.88-1.998 13.67-3.073 16.64-6.503 18.227-1.741.768-20.275 1.024-75.162.921a3784 3784 0 0 1-75.059-.512zM201.216 635.7c-66.048-.41-71.168-.563-73.318-1.997-3.072-1.996-3.072-4.966-.103-10.956 8.141-16.23 28.263-27.597 60.826-34.15 20.838-4.25 33.229-9.166 44.595-17.716 13.568-10.189 15.155-19.456 4.3-25.037a91.4 91.4 0 0 1-31.436-28.467c-10.7-16.23-17.869-42.138-17.869-64.512 0-11.622 6.144-34.048 13.056-47.974 10.24-20.48 24.679-34.919 44.851-44.8 13.62-6.656 31.079-10.752 45.364-10.752 3.072 0 5.12-.512 6.45-1.639 1.793-1.433 1.895-1.843.922-4.71-1.433-4.301-7.475-9.626-13.516-11.879-5.632-2.15-12.032-3.072-29.287-4.403a113 113 0 0 1-16.077-2.201 28.57 28.57 0 0 1-14.899-10.138c-2.048-3.072-2.457-4.608-2.457-9.42 0-5.07.41-6.452 3.584-12.238 3.328-6.092 4.71-9.728 7.219-18.944.87-3.072 1.382-3.686 3.277-3.686 1.228 0 3.635 1.126 5.376 2.509 10.598 8.345 42.854 19.251 56.985 19.251 8.909 0 13.107-1.28 16.384-5.069 2.355-2.662 2.611-3.43 2.15-6.605a37.53 37.53 0 0 0-9.727-18.176c-5.12-5.068-15.463-10.342-25.19-12.902a69.5 69.5 0 0 0-18.28-1.946c-12.44-.153-13.465.154-20.377 5.888-5.734 4.813-7.629 4.404-14.029-3.174-15.974-18.944-23.398-38.656-18.79-49.715 1.536-3.584 3.482-4.403 16.947-6.656 5.94-1.024 18.074-3.328 26.983-5.223 35.02-7.321 54.323-9.728 78.49-9.625 20.377 0 21.247-.256 26.726-8.397 7.168-10.752 9.83-21.248 9.83-39.424 0-14.746.666-16.538 5.888-16.538 4.096 0 10.035 2.868 12.954 6.35 5.785 6.86 8.038 15.922 9.01 36.71.615 12.8 1.28 18.432 2.92 24.883 3.378 13.21 5.324 16.179 19.711 30.361 17.869 17.664 23.245 26.164 26.522 42.087 2.611 12.749 1.126 27.853-3.891 39.373-6.247 14.233-20.992 30.617-37.479 41.625-12.749 8.448-27.443 15.463-83.507 39.783-10.752 4.608-22.118 9.728-25.242 11.315-20.275 10.24-39.219 29.593-46.54 47.462-2.048 5.12-2.56 7.68-2.868 16.077-.614 15.616 2.714 26.112 12.288 38.86 6.605 8.705 19.2 18.433 28.672 21.966 11.776 4.352 28.16 4.608 41.882.563 13.414-3.891 28.928-13.107 27.136-16.026-.973-1.536-2.918-1.126-8.909 1.741-22.733 10.854-47.77 12.493-62.003 4.096a74.1 74.1 0 0 1-19.968-20.02c-8.243-13.977-10.854-33.791-6.246-47.257a41.2 41.2 0 0 1 11.315-16.998c8.704-8.448 36.045-22.375 89.241-45.568 31.488-13.824 37.684-16.896 48.64-24.167a134.81 134.81 0 0 0 60.57-113.664 32.3 32.3 0 0 1 .82-9.83c1.023 0 6.86 7.834 11.314 15.104 22.733 37.171 30.567 86.938 19.559 124.826-10.24 35.481-34.355 63.18-64.154 73.728-10.803 3.89-18.995 5.17-31.897 5.12a93.1 93.1 0 0 1-30.925-4.71c-16.896-4.916-29.491-5.377-43.213-1.588-12.493 3.43-18.79 8.5-21.3 17.05a24.83 24.83 0 0 0 2.92 18.739c3.122 5.785 5.99 7.833 11.724 8.294 8.448.666 19.814-5.273 19.814-10.393 0-1.127-2.56-6.452-5.632-11.828a52.7 52.7 0 0 1-5.632-11.93c0-3.225 3.021-4.812 9.063-4.812 7.936 0 13.005 2.765 19.149 10.291 5.734 7.168 10.905 10.855 17.05 12.34 7.474 1.791 8.55 5.734 4.71 17.254-6.35 18.944-22.528 41.113-51.815 71.117a315 315 0 0 0-21.606 23.91 157.4 157.4 0 0 0-20.48 44.39c-3.175 11.11-5.99 13.927-14.848 14.95-1.434.154-34.56.103-73.626-.153zm128.256-17.817c-5.018-2.202-4.608-9.575.82-15.77 4.76-5.478 6.4-5.888 23.602-6.451 14.03-.41 15.616-.615 16.743-2.15a6.86 6.86 0 0 0 1.229-3.482c0-2.919-3.738-11.008-7.68-16.896-6.4-9.319-7.476-12.493-7.527-22.016 0-9.319.87-11.52 6.4-15.258 9.165-6.246 33.946-3.584 58.931 6.298 24.32 9.625 48.18 13.414 83.764 13.414 18.432 0 21.196.205 21.657 1.383.666 1.74-2.048 5.427-5.837 7.987-9.574 6.553-36.966 9.728-69.376 7.987-19.814-1.024-21.76-.666-23.142 4.096-1.536 5.274 1.229 11.52 8.5 19.456 9.778 10.65 10.546 16.18 2.764 20.326-3.584 1.895-3.891 1.895-55.808 2.1-43.52.153-52.736 0-55.04-1.024m566.886-262.656a35.5 35.5 0 0 1-18.432-9.78 880 880 0 0 1-24.37-28.364c-47.463-56.679-62.823-72.807-87.194-91.239a313 313 0 0 0-67.328-37.888c-65.997-25.805-143.002-29.184-221.39-9.625-17.92 4.505-17.407 2.457 1.127-4.762a387.4 387.4 0 0 1 186.368-23.142c95.488 12.185 177.306 60.57 228.25 134.912 18.073 26.419 25.344 41.472 25.395 52.633 0 12.544-8.755 19.303-22.426 17.306z"/></svg>