<svg xmlns="http://www.w3.org/2000/svg" width="209.961" height="200" class="icon" viewBox="0 0 1075 1024"><path fill="#aecbfa" d="M328.704 465.306v95.385c15.053 25.907 36.352 47.616 62.054 63.079V465.306z"/><path fill="#669df6" d="M443.29 377.549v273.05c13.312 1.689 26.777 2.457 40.243 2.201q18.124 1.076 36.25 0V377.549z"/><path fill="#aecbfa" d="M579.277 502.63v119.296a181.4 181.4 0 0 0 61.645-65.996v-53.248h-61.645z"/><path fill="#4285f4" d="m727.962 664.371-51.508 51.507a15.31 15.31 0 0 0 0 21.76l128.41 128.359a15.206 15.206 0 0 0 21.402 0l51.814-51.866a15.26 15.26 0 0 0 0-21.401L749.722 664.37a15.26 15.26 0 0 0-21.76 0"/><path fill="#669df6" d="M483.533 145.05a326.4 326.4 0 1 0 0 652.8 326.4 326.4 0 0 0 0-652.8m0 568.985a242.278 242.278 0 1 1 .768-484.505 242.278 242.278 0 0 1-.768 484.505"/></svg>