<svg xmlns="http://www.w3.org/2000/svg" width="209.961" height="200" class="icon" viewBox="0 0 1075 1024"><path fill="#bae6fa" d="M522.65 317.645c-87.45 1.945-176.384 28.877-277.044 84.582-18.278 21.146-27.699 44.032-25.702 67.277 6.758 78.95 142.029 131.84 302.08 118.118 160.102-13.721 284.365-88.883 277.555-167.833a79.46 79.46 0 0 0-16.691-41.472c-91.597-41.011-175.206-62.618-260.198-60.672"/><path fill="#fff" d="M533.965 317.491c-71.168-.102-142.95 16.077-220.98 50.842a154 154 0 0 0-5.017 39.014c0 93.696 84.582 169.626 188.928 169.626 104.294 0 188.928-75.981 188.928-169.626 0-25.241-6.246-49.152-17.254-70.707a512.5 512.5 0 0 0-134.656-19.149z" opacity=".35"/><path fill="#fff" d="M496.896 310.886c-33.792-2.048-92.109 15.565-140.646 33.178a144.2 144.2 0 0 0-11.52 56.474c0 82.073 74.444 148.633 153.139 148.633 78.182 0 147.405-66.662 153.139-148.633 1.894-26.676-7.322-51.815-20.07-73.524a1317 1317 0 0 0-134.042-16.128"/><path fill="#6a6a6a" d="M410.112 389.786c4.147-9.216 10.445-13.722 16.538-21.402a48 48 0 0 1-2.202-9.882 16.69 16.69 0 0 1 22.886-15.513 121.8 121.8 0 0 1 110.592-19.456c-36.198-4.967-77.004 7.833-104.704 30.208.82 2.048 3.175 7.68 3.175 10.035 0 9.216-5.99 11.469-15.207 11.469a16.9 16.9 0 0 1-5.939-1.127 169.2 169.2 0 0 0-17.715 34.458c15.36 13.722 29.184 18.688 47.258 25.446 0-.819.614-1.638.614-2.56 0-27.801 24.525-50.38 52.326-50.38a50.33 50.33 0 0 1 49.664 41.932c12.442-7.936 24.474-14.028 33.639-25.753a29.7 29.7 0 0 1-4.455-13.62 15.155 15.155 0 0 1 18.637-14.745c4.608-9.626 8.192-19.712 10.394-30.208-43.52-32.205-127.744-27.802-127.744-27.802s-67.021-3.481-112.384 18.637c3.072 21.863 11.776 42.65 24.627 60.263"/><path fill="#6a6a6a" d="M618.138 377.19c3.072 2.765 4.761 5.223 6.092 7.578 4.096 7.322-4.096 14.029-12.441 14.029a15 15 0 0 1-2.56-.256c-9.421 14.745-25.907 33.638-40.602 43.161 22.528 3.738 43.725 12.698 60.621 26.624 12.288-22.016 21.76-53.862 21.76-80.896 0-20.582-9.114-35.635-22.784-46.694-.717 11.008-6.656 26.42-10.086 36.454M435.354 516.813c7.526-20.685 26.01-36.762 43.468-50.893a96 96 0 0 1-7.987-16.23 122.16 122.16 0 0 1-54.784-34.663 110.4 110.4 0 0 0-2.201 38.144 21.965 21.965 0 0 1 17.92 21.555c0 6.4-5.632 15.616-9.933 19.661 4.71 10.138 7.885 15.053 13.568 22.426"/><path fill="#6a6a6a" d="M434.074 534.22c-8.96-8.908-15.156-26.623-20.992-37.785a21 21 0 0 1-3.328.307c-12.135 0-24.832-10.24-21.965-22.016 1.587-6.502 6.144-10.752 13.414-14.336-1.638-13.516-2.099-32.921 1.024-47.001.922-3.994 2.816-5.888 4.096-9.728a128.87 128.87 0 0 1-22.067-70.81l.051-2.765c-22.63 11.367-39.577 29.184-39.577 57.344 0 62.26 35.84 123.392 89.19 147.303zm131.174-86.067a50.38 50.38 0 0 1-78.592 22.886c-17.664 13.773-33.69 37.888-41.83 58.88 3.635 3.942 6.144 7.168 10.29 10.7 12.34 3.226 29.39 0 42.753 0 53.76 0 101.427-23.96 128.768-65.945-18.176-12.544-39.629-24.525-61.389-26.521"/><path fill="#1185b0" d="M408.73 397.056c4.096-9.062 9.267-17.613 15.462-25.395a16.742 16.742 0 0 1 21.811-21.402 121.86 121.86 0 0 1 110.541-19.456 134.14 134.14 0 0 0-101.325 28.519 16.742 16.742 0 0 1-21.35 22.067 112.7 112.7 0 0 0-15.155 27.75c13.21 14.183 29.337 25.447 47.41 32.154-.05-.82-.153-1.69-.153-2.56a50.38 50.38 0 0 1 100.045-8.448 131.5 131.5 0 0 0 32.666-29.85 15.155 15.155 0 0 1 15.155-24.269c4.659-9.574 8.192-19.712 10.393-30.208-43.52-32.204-127.744-27.801-127.744-27.801s-67.02-3.482-112.384 18.637c3.072 21.862 11.776 42.65 24.628 60.262"/><path fill="#1185b0" d="M620.493 379.7a15 15 0 0 1 .614 21.913 15.2 15.2 0 0 1-13.21 4.198 122.7 122.7 0 0 1-36.659 36.864 122.34 122.34 0 0 1 59.034 26.522 152.85 152.85 0 0 0 19.354-74.445c0-20.634-9.114-35.686-22.836-46.746a121.8 121.8 0 0 1-6.297 31.693M437.709 521.83c7.526-20.992 20.685-39.424 37.99-53.452a50.2 50.2 0 0 1-6.297-11.418 122.16 122.16 0 0 1-54.682-34.662l-.307 1.382a110.1 110.1 0 0 0-1.895 36.762 21.965 21.965 0 0 1 10.804 37.683c3.993 8.397 8.806 16.333 14.438 23.705z"/><path fill="#1185b0" d="M433.971 534.016a122.1 122.1 0 0 1-22.22-30.31 21.6 21.6 0 0 1-18.945-6.144 22.016 22.016 0 0 1 6.042-35.328 121.55 121.55 0 0 1 5.274-53.3 121.55 121.55 0 0 1-21.248-68.812l.05-2.765c-22.63 11.315-39.577 29.184-39.577 57.344 0 62.31 37.171 115.814 90.522 139.776l.102-.512zm129.895-78.592a50.38 50.38 0 0 1-78.592 22.886 124.8 124.8 0 0 0-39.168 53.504c3.686 3.943 7.577 7.68 11.673 11.11a152.99 152.99 0 0 0 167.117-64.818 128.5 128.5 0 0 0-61.03-22.682"/><path fill="#fff" d="m502.17 395.776-26.42-47.104 14.336 50.022-42.803-31.078 33.485 42.086-53.094-19.507 41.881 30.976-53.76 1.69 54.989 14.182-54.989 11.879 54.272 3.942-45.773 29.338 47.104-17.101-32.665 41.472 41.318-33.383-14.848 55.604 31.898-45.261-4.506 53.453 18.125-48.436 15.462 50.893 3.738-51.046 22.886 43.52-13.516-49.767 41.881 32.41-27.033-41.37 45.977 17.92-35.174-34.56 47.104 3.687-46.387-17.818 46.592-11.059-46.746-2.406 37.99-29.082-43.161 15.462 29.337-40.652-40.448 26.93 14.132-47.564-27.853 39.22-.615-49.562-18.33 44.134-15.206-44.646.82 52.633z"/><path fill="#6a6a6a" d="M69.99 531.558C214.374 387.174 329.728 342.58 434.38 322.202c13.825-2.714 16.436-32.973 16.436-32.973s1.946 22.323 11.622 25.241c9.728 2.868 22.324-34.918 22.324-34.918s-11.623 33.946 0 35.84c11.622 1.946 32.921-32.922 32.921-32.922s-8.704 30.055-2.867 31.95c5.786 1.945 34.816-43.572 34.816-43.572s-17.408 30.054-.922 32.922c16.487 2.918 40.5-20.48 40.5-20.48s-18.893 21.401-10.445 24.37c35.84 12.596 64.87-33.996 64.87-33.996s-6.758 20.48-24.166 42.7c37.785 9.729 65.843-47.206 65.843-47.206l-28.058 56.935c14.541 7.731 72.704-59.136 72.704-59.136s-30.054 52.326-47.513 62.976c9.728 7.782 44.544-23.245 44.544-23.245s-28.058 34.867-17.408 36.864c15.513 12.544 72.704-64.973 72.704-64.973s-22.323 45.568-55.296 81.408c27.545 13.824 95.949-74.598 95.949-74.598s-1.946 28.109-51.354 72.704c36.864-4.864 84.326-74.65 84.326-74.65s-17.408 52.327-59.136 89.14c36.199-3.738 94.004-93.031 94.004-93.031s-22.272 62.003-67.84 97.894c50.432 11.162 123.084-64 123.084-64s-28.518 53.402-65.894 75.162c41.677 15.974 98.816-49.92 98.816-49.92s-57.14 88.166-148.224 84.326c-29.9-1.28-120.32-90.726-314.01-83.353-255.795 9.728-310.067 118.22-446.72 191.897" opacity=".35"/><path fill="#6a6a6a" d="M735.846 256s-58.163 66.867-72.704 59.136l28.11-56.986s-28.11 56.935-65.895 47.258c17.408-22.272 24.166-42.7 24.166-42.7s-28.979 46.591-64.87 33.996c-8.397-2.97 10.496-24.371 10.496-24.371s-24.064 23.398-40.5 20.48c-16.486-2.919.922-32.922.922-32.922s-29.03 45.568-34.867 43.571c-5.837-1.894 2.918-31.948 2.918-31.948s-21.299 34.867-32.972 32.921c-11.623-1.945 0-35.84 0-35.84s-12.596 37.786-22.272 34.867c-9.728-2.867-11.623-25.19-11.623-25.19s-2.611 30.26-16.486 32.973C335.616 331.57 220.314 376.166 75.879 520.55c136.703-73.574 190.924-182.118 446.77-191.846 193.69-7.373 284.11 82.022 313.959 83.302 91.136 3.892 148.275-84.326 148.275-84.326s-57.139 65.894-98.816 49.92c37.274-21.811 65.895-75.11 65.895-75.11s-72.704 75.11-123.085 64c45.568-35.84 67.84-97.895 67.84-97.895s-57.856 89.293-94.003 93.03c41.676-36.812 59.084-89.139 59.084-89.139s-47.462 69.786-84.275 74.599c49.408-44.544 51.354-72.704 51.354-72.704s-68.403 88.422-95.949 74.65c32.922-35.84 55.245-81.409 55.245-81.409s-57.19 77.517-72.704 64.922c-10.65-1.946 17.459-36.813 17.459-36.813s-34.867 31.027-44.544 23.245C705.792 308.326 735.846 256 735.846 256m92.98 162.97c-9.728-.615-18.33 3.02-22.733 14.95-45.056 85.76-139.52 133.734-250.01 149.76-110.49 15.974-191.897-7.27-258.765-26.112-87.91-24.78-157.696 19.302-233.984-18.944 17.613 13.926 37.786 27.597 95.898 27.75 19.712.103 82.842-3.072 94.464 7.117 11.674 10.138-39.22 58.112-39.22 58.112s86.068-72.755 94.465-47.974c5.222 15.462-24.679 56.73-24.679 56.73s30.004-40.756 52.327-49.46c15.309-5.939 28.211-5.222 39.219 10.24 7.27 10.138-34.816 59.546-34.816 59.546s56.627-55.245 66.816-52.327c10.189 2.919 0 52.327 0 52.327s20.838-50.074 31.949-53.76c15.257-5.12-34.867 116.224-34.867 116.224s61.235-112.23 72.704-114.79c19.61-4.353 32.716 78.489 32.716 78.489s-9.574-72.346.717-77.005c65.024-29.491 27.648 124.98 27.648 124.98s42.496-104.807 16.384-128.052c69.018 45.773 60.621 128.051 60.621 128.051s18.125-39.168-32.768-135.526c27.648-1.434 69.12 71.578 69.12 71.578s-45.056-79.924-14.54-81.408c60.62-2.868 66.866 106.137 66.866 106.137s18.125-15.257-30.515-122.112c30.976-19.865 106.087 98.816 106.087 98.816s-69.274-115.763-58.164-123.545c11.162-7.732 51.866 36.864 51.866 36.864s-30.976-42.65-22.784-47.002c8.243-4.403 90.624 84.787 90.624 84.787s-72.704-87.245-60.109-97.894c7.475-6.298 29.082 5.376 45.568 15.974-23.091-16.537-56.32-42.445-45.568-48.025 22.323-11.572 85.811 27.648 85.811 27.648s-38.297-31.437-32-39.22c6.298-7.73 81.408 49.408 81.408 49.408s-66.406-52.326-69.785-65.382c-3.38-13.107 52.326 4.352 52.326 4.352s-61.542-28.57-62.464-36.864c-1.024-8.192 40.653 9.216 40.653 9.216s-27.034-22.17-48.486-23.654M826.93 541.49c6.656 4.762 13.517 9.472 20.327 14.08 0 0-8.96-6.81-20.327-14.131z"/><path fill="#6a6a6a" d="M66.202 547.328c76.288 38.298 146.073-5.837 234.035 18.944 66.867 18.842 148.275 42.086 258.713 26.112 110.49-15.974 205.005-64 250.061-149.709 14.029-38.297 71.22 8.704 71.22 8.704s-41.677-17.408-40.705-9.216c1.024 8.243 62.464 36.864 62.464 36.864s-55.705-17.459-52.275-4.403c3.38 13.107 69.735 65.434 69.735 65.434s-75.06-57.19-81.408-49.46c-6.247 7.783 32 39.27 32 39.27s-63.488-39.27-85.76-27.647c-16.026 8.294 65.894 62.054 65.894 62.054s-53.248-40.704-65.894-30.054c-12.596 10.7 60.108 97.894 60.108 97.894s-82.432-89.139-90.624-84.787c-8.243 4.352 22.784 47.002 22.784 47.002s-40.704-44.544-51.865-36.864c-11.11 7.782 58.163 123.596 58.163 123.596s-75.11-118.732-106.138-98.816c48.692 106.804 30.516 122.061 30.516 122.061s-6.144-109.005-66.868-106.137c-30.515 1.484 14.541 81.408 14.541 81.408s-41.472-73.012-69.12-71.527c50.944 96.307 32.768 135.475 32.768 135.475s8.448-82.227-60.62-128c26.163 23.245-16.385 128-16.385 128s37.428-154.419-27.648-124.928c-10.24 4.608-.716 77.005-.716 77.005s-13.108-82.893-32.717-78.49c-11.418 2.56-72.704 114.791-72.704 114.791s50.176-121.344 34.918-116.224c-11.11 3.686-31.949 53.76-31.949 53.76s10.138-49.408 0-52.326c-10.24-2.919-66.918 52.326-66.918 52.326s42.189-49.408 34.918-59.597c-11.008-15.411-23.961-16.179-39.27-10.24-22.272 8.704-52.326 49.46-52.326 49.46s29.952-41.268 24.73-56.679c-8.398-24.832-94.465 47.974-94.465 47.974s50.842-47.974 39.22-58.163-74.753-7.014-94.465-7.065c-58.163-.205-78.336-13.824-95.948-27.802" opacity=".35"/></svg>