<svg xmlns="http://www.w3.org/2000/svg" width="200" height="200" class="icon" viewBox="0 0 1024 1024"><path d="M559.309 379.085H51.2v237.568h508.109z"/><path fill="#093" d="M972.8 379.085H569.549v237.568H972.8z"/><path fill="#fff" d="M130.355 427.827v9.472h67.943v-9.472zm77.824 0v9.472h97.024s-9.881-9.472-22.937-9.472zm115.815 0v9.472h58.675l-3.38-9.472zm100.864 0-3.43 9.472h58.111v-9.472zm-294.503 18.586v9.472h67.943v-9.421h-67.943zm77.824.205v9.472h108.237s-1.331-7.373-3.43-9.472zm115.815 0v9.472h65.126l-3.226-9.472zm93.798 0-3.226 9.472h64.768v-9.472zM149.914 465.05v9.472h29.44v-9.524h-29.44zm77.824 0v9.472h29.44v-9.524h-29.44zm58.112 0v9.472h29.44s1.894-5.12 1.894-9.524H285.85zm57.702 0v9.472h52.224l-3.43-9.524h-48.794zm67.789 0-3.43 9.472h52.633v-9.524h-49.152zm-261.427 18.79v9.472h29.44v-9.472zm77.824 0v9.472h75.212s6.247-4.915 8.346-9.472zm115.814 0v9.472h29.44v-5.325l1.894 5.325h54.17l2.048-5.325v5.325h29.491v-9.472H405.3l-2.816 8.14-3.072-8.191h-55.859zm-193.638 18.586v9.472h29.44v-9.472zm77.824 0v9.472h83.558c-2.048-4.557-8.346-9.472-8.346-9.472zm115.814 0v9.472h29.44v-9.472zm34.97 0 3.584 9.472h40.448l3.43-9.472zm52.377 0v9.472h29.44v-9.472zm-280.985 18.432v9.472h29.44v-9.472zm77.824 0v9.472h29.44v-9.472zm58.112 0v9.472h31.334c0-4.557-1.894-9.472-1.894-9.472zm57.702 0v9.472h29.44v-9.472zm41.574 0 3.43 9.472h27.137l3.43-9.472zm45.773 0v9.472h29.44v-9.472zm-299.98 18.585v9.523h67.993v-9.523zm77.311 0v9.523h104.756c2.304-2.304 3.43-9.523 3.43-9.523H208.179zm116.378 0v9.523h48.384v-9.523zm67.174 0 3.584 9.523h13.876l3.43-9.523zm39.117 0v9.523h48.999v-9.523zm-299.98 18.79v9.524h67.993v-9.523zm77.311 0v9.524h73.83a36.86 36.86 0 0 0 22.99-9.523h-96.87zm116.378 0v9.524h48.384v-9.523zm74.035 0 3.43 9.524h.513l3.43-9.523zm32.256 0v9.524h48.999v-9.523zm224.256-17.459v-90.982h15.77c14.438 0 17.459 11.98 17.459 42.342 0 37.223-1.331 48.436-22.784 48.436h-10.445zm20.327 18.79a35.84 35.84 0 0 0 17.817-3.43c19.763-11.417 19.763-40.806 19.763-66.048 0-21.299-1.536-35.532-7.014-44.441a29.9 29.9 0 0 0-24.883-14.643H631.04v128.512h44.442zm83.148-18.738v-38.912h9.268c15.052 0 17.715 5.888 17.715 19.763 0 6.451-1.024 15.001-7.424 17.817-4.352 1.895-9.472 1.332-14.439 1.332zm0-57.703v-33.229h11.213c11.008.359 13.107 5.12 13.107 14.848 0 6.042-.41 10.599-2.662 13.824-3.84 4.762-11.418 4.352-17.1 4.352h-4.609v.205zm18.432 76.493c17.05 0 26.368-6.81 31.488-23.142 1.332-5.12 1.741-10.445 1.741-15.77 0-16.691-5.12-27.904-18.637-29.798v-.359c13.108-4.761 15.36-15.77 15.36-26.982 0-8.704-.921-16.128-6.246-23.143-6.81-8.755-16.896-9.523-27.34-9.523H734.72v128.512h42.342zm119.194 0v-18.79h-44.8c.154-8.704 7.578-17.101 12.493-22.221l18.79-19.559c9.882-10.035 15.207-20.89 15.207-35.123 0-20.48-14.234-33.024-34.304-33.229-37.07-.358-36.506 28.519-36.506 39.68v3.584h22.426c.153-6.041-.615-12.492 1.894-18.176 1.69-4.761 6.042-6.297 11.213-6.297 6.81 0 11.366 3.584 11.366 15.206 0 12.135-4.198 16.333-11.776 24.679l-11.571 12.339c-14.848 15.565-21.094 27.34-22.58 36.096a209 209 0 0 0-2.098 21.811zm33.024 6.195c9.728 0 17.664-7.987 17.664-17.664a17.613 17.613 0 1 0-17.664 17.664m0-3.225a14.44 14.44 0 0 1-14.387-14.439c0-7.936 6.451-14.233 14.438-14.233 7.936 0 14.234 6.45 14.234 14.233a14.13 14.13 0 0 1-14.234 14.439zm4.198-12.903c3.43-.205 5.325-1.69 5.325-5.12 0-1.894-.563-3.789-2.253-4.966-1.536-.922-3.635-.922-5.12-.922h-9.318v19.149h3.789v-8.14h3.789l4.147 8.191h4.403zm-7.577-2.867v-5.325h4.557c1.894 0 4.556 0 4.556 2.509 0 2.458-1.536 2.816-3.584 2.816z"/></svg>