<svg xmlns="http://www.w3.org/2000/svg" width="200" height="200" class="icon" viewBox="0 0 1024 1024"><path fill="#1021ff" d="M887.091 296.329H107.622v427.468h779.47v-427.52z"/><path fill="#0c08d5" d="M887.091 360.43c-365.568 45.21-688.23 165.787-770.56 363.367h770.56z"/><path fill="#fff" d="M531.354 477.32h44.441v72.602h39.424v-72.601h44.34v195.686h-44.442v-81.254h-39.424v81.254H531.2V477.32zm210.176 72.602h-42.957c0-14.643.563-26.112 1.74-34.457s3.84-15.719 7.68-22.016a40 40 0 0 1 17.716-15.36c7.936-3.84 17.459-5.735 28.313-5.735 18.023 0 32 4.66 41.677 14.234 9.677 9.523 14.49 23.142 14.49 41.062 0 9.216-1.895 19.047-5.581 29.645-3.635 10.547-9.216 22.272-16.691 34.867l-24.064 41.114h39.424v39.885H691.814l64-109.159c7.732-13.056 11.725-24.934 11.725-35.789a22.53 22.53 0 0 0-3.584-13.21c-2.304-3.378-5.222-5.12-8.755-5.12-5.58 0-9.216 2.202-10.854 6.606-1.741 4.403-2.51 13.21-2.51 26.265v7.168z"/></svg>