<svg xmlns="http://www.w3.org/2000/svg" width="200" height="200" class="icon" viewBox="0 0 1024 1024"><path fill="#fdee21" d="M570.112 218.624c-7.066-19.354-250.266-113.92-253.389-103.526-44.646 11.622-62.822 63.13-93.542 95.744l-68.25-3.994c-30.003 38.656-45.773 78.131-35.072 119.194 38.554 52.172 83.251 96.563 111.104 162.099 2.202 30.925 133.735 3.225 161.895-2.867-38.503 27.545-72.039 70.297-57.6 193.33 13.158 57.806 22.118 122.318 138.803 187.649 15.36 8.601 47.155 18.534 66.816 25.805 18.79 8.601 40.755 12.134 102.758-6.81 35.84-15.462 74.599-24.78 109.722-40.192l-42.189 1.946c-58.112 1.28-102.963 5.632-116.838-10.599l-53.453-92.365 31.18-60.518c43.162 4.403 57.498 39.424 95.489 52.736l44.85-33.229c130.202 76.851 182.017-48.691 196.865-146.483-1.587-39.834-86.17 12.442-81.05-6.144 1.997-42.803-32.87-98.765-55.398-142.336L798.925 307.2c11.776-10.547-54.784-122.778-109.21-136.755-47.667-12.288-119.603 48.128-119.603 48.128z"/><path fill="#c8c037" d="M784.077 432.998c.46 10.804.41 24.013 1.433 32.256-.153 6.247-4.864 6.503-8.755 7.783l25.344 9.267c5.018 8.5 9.063 16.896 13.159 25.395 4.71 20.839 1.177 21.453-1.946 22.938-9.216.102-18.38.153-26.931-1.69 3.84 2.048 4.659 3.533 5.12 6.144.717 4.71-2.355 11.264-7.424 17.562 7.475 4.147 21.145 8.192 31.283 12.083l11.571-25.754c-5.222-37.888-21.145-72.704-42.854-105.984m47.257 126.976c14.08 5.837 33.485 4.096 60.416-9.728 3.994-2.867 7.68-1.177.512 3.482-35.276 31.693-52.172 15.872-60.928 6.195z"/><path fill="#c8c037" d="M894.464 546.048c4.096 7.987 1.587 14.49.205 21.248a180.2 180.2 0 0 1-36.045 89.856c-68.3 109.824-137.267 41.114-192.256-3.584l-22.733 56.934c-1.229 5.018-6.246 8.91 29.287 24.576l36.198-25.6c137.933 104.96 235.725-146.944 185.293-163.43zm-211.456 98.15c-9.318.615-37.018 10.036-38.246 15.514l12.8-18.995zm-18.074-116.48c1.69 0 9.882 2.202 9.012 1.741-1.28-.717-.154 11.469 2.406 17.818l-9.984 21.709c19.149-22.016 49.408-20.583 77.466-23.399l-13.364-8.345c2.304-7.732-.41-13.876-1.74-20.48zm47.002-65.433c-20.531 6.297-40.192 16.589-53.35 38.502 10.035-36.147 12.083-34.765 15.36-36.557 14.028-6.297 25.6-2.355 37.99-1.945"/><path fill="#fcf6a0" d="M602.266 885.76c-24.832 27.34-80.23-2.1-126.208-17.152-116.89-74.291-139.725-144.282-141.312-212.94-6.042-98.305 24.166-155.444 62.361-168.96-25.293 48.742-37.069 136.191-25.344 201.215 9.472 36.199 9.677 97.229 70.195 129.895 29.696 16.64 21.607 29.696 41.677 45.312 21.965 17.1 83.2 33.382 118.63 22.579zm37.068-454.451c-41.984-59.597-101.12-81.92-167.782-84.378 13.312-4.352 26.726-6.656 40.09-13.056 3.225-3.43 2.201-9.523.972-15.667-64.204-16.742-104.652-37.427-155.955-56.627l138.394 33.229c93.44 3.532 85.453 26.624 144.281 136.499m45.005-28.723c-31.078-44.34-61.184-98.15-102.041-132.352-98.714-44.544-196.352-77.67-310.784-107.776l36.505-46.95c121.447 27.698 235.52 74.086 337.664 150.527 17.255 43.725 28.775 87.552 38.656 136.55m62.618-78.336s-17.408-39.066-25.907-54.016c-19.661-21.76-29.594-62.362-69.888-81.51 12.8 3.43 21.504-.666 47.462 22.886l40.96 77.721zm21.657 67.686c3.994-33.894 11.623-88.166 2.868-109.568l-73.37-97.792c-4.096-3.789-7.014-8.96-10.189-12.954 34.509 8.96 70.503 32.922 119.04 127.59l-38.349 92.673z"/><path d="M623.616 395.93c-13.722-10.855-25.958-49.101-46.797-57.037-19.251-1.587-26.317-7.68-51.66-2.509 9.215-4.608 17.92-10.496 27.647-13.62 6.656-1.586 12.8.154 19.15 1.025 1.535-.768 2.56-1.639 2.2-3.072-25.497-15.719-77.823-15.975-113.151-24.935 40.96 1.332 86.323-.921 117.145 8.96 24.781 22.016 32.768 63.386 45.466 91.136zm75.11-184.423c5.684.512 36.352 48.896 37.735 56.986 2.56 17.613 8.806 37.376 10.496 55.808-5.018-17.715-10.496-35.38-17.408-53.043-1.997-4.864-7.066-15.872-21.146-31.437-6.605-10.957-7.987-19.61-9.677-28.314m103.732 263.68H789.35l14.49 3.789zm-89.344-13.107a118.3 118.3 0 0 0-39.834 1.075c-5.376 7.168-5.734 14.541-8.09 21.3 16.026-17.613 22.375-18.689 47.924-22.375m179.558 91.034c-7.322 5.836-8.038 11.366-29.696 17.92-15.82 3.788-24.73-2.56-32.154-11.06 11.264 3.226 13.056 11.725 43.316 2.202zm-65.638 3.686c-5.274 14.49-10.957 29.184-16.692 42.752-13.67 15.974-7.833 6.86-28.262 31.744 6.554-10.086 15.053-19.814 19.456-30.31 3.174-6.912 7.066-14.234 8.755-20.378-5.376-2.714-16.486-2.918-17.971-1.946-18.176 10.701-21.504 22.016-32.154 33.076 7.732-12.39 14.336-25.959 23.399-37.12 1.024-1.434 7.68-1.741 11.776-2.56-6.4-1.127-18.176-3.38-19.098-3.277-11.878 2.816-18.483 13.158-27.29 19.968 6.4-9.216 12.289-18.893 20.48-26.829.769-.922 22.785 1.024 34.202 5.53l.205 4.556 6.502 2.612 4.864-12.186 11.776-5.632zm-143.719 87.398c-2.97-1.024-28.774-4.3-28.774-3.532-9.933 7.065-11.418 13.824-11.213 19.66 16.486-16.23 15.872-16.281 39.936-16.128zm-19.66-116.736s18.636-2.713 18.278-.972c-1.331 6.502 2.304 22.22 2.662 20.019l-10.445 8.55c21.914-11.008 45.056-8.806 68.455-10.496 0 0-19.712-5.427-18.535-5.632 4.404-.614-1.177-20.531-2.662-20.992 3.738-1.229 7.424-2.201 11.213-3.174-28.211-7.373-44.544-3.021-68.967 12.697"/><path d="m824.986 541.389-4.096 2.048c-.615-12.135-13.67-11.264-24.679-11.367l-8.96-2.15c2.714 2.56 11.213 2.304 7.783 7.782-2.868 1.536-4.199 8.192-5.837 13.67l-4.915.257 26.112 10.24 5.58.87 13.364-7.168z"/><path fill="#fff" d="M701.44 533.197c-2.048-4.147-12.646-3.584-14.9-.87-1.842 2.201-.153 16.179 2.254 13.823a18.07 18.07 0 0 1 13.312-4.044 16.2 16.2 0 0 0-.666-8.91m101.222 20.838c.973-.717 3.072-7.68 2.407-9.83-1.383-4.967-11.213-3.891-11.213-3.891-2.406 1.382-4.506 9.113-3.584 11.673.41 2.15 10.752 2.816 12.39 2.048"/><path d="m383.078 796.262 6.144.615c36.762 18.022 97.28 44.8 184.832 30.413l13.824 21.606c-38.604 18.74-80.128 14.438-118.988 15.77zM330.342 653.62l18.381 77.312c49.255 30.771 133.427 66.048 203.623 63.232l-15.514-35.584c-146.432-31.13-158.874-70.451-206.54-104.96zm45.773-158.259c8.96 59.904 20.992 105.267 73.063 143.309 31.948 22.937 63.59 45.773 102.144 64.665 0 0-3.38 17.562-6.196 17.255C430.438 707.84 346.47 612.762 336.333 569.344c9.83-33.28 23.961-54.118 39.782-73.984m55.091-33.946c15.31 66.356 51.712 133.632 87.962 194.56 13.312 16.896 16.742 24.32 37.222 34.56 27.648 8.704 47.207 6.503 67.277 5.172-5.53-10.138-10.393-20.788-16.691-30.362-44.954-35.533-24.218-67.891-12.288-88.422-24.986-6.298-58.06-19.712-62.618-37.376-7.372-57.088-3.635-75.264 3.687-104.55-33.792 7.167-68.096 14.233-104.5 26.418z"/><path d="M307.046 108.851c-11.11 7.27-21.862 17.664-33.382 29.44-19.098 19.815-31.846 39.117-51.302 53.402-3.892 3.379-14.797 8.755-28.519 9.574-6.451.307-10.7 1.383-22.528-.102-10.496-5.632-20.48-1.997-30.208 9.625-10.65 15.36-24.115 44.39-29.696 62.72-11.571 46.695 17.92 85.197 46.131 114.842 25.19 24.576 39.68 39.936 50.023 62.464 7.782 14.643 13.619 34.662 19.865 48.742 2.253 4.455 1.792 4.404 7.885 5.786 13.159 2.765 31.386 2.816 47.616 4.198 7.015.103 16.64-.153 25.805-1.126 12.595-2.355 27.392-4.71 39.782-8.96 12.135-3.02 22.887-7.168 32.615-10.957-1.229 4.301-10.496 8.397-13.978 13.824-32.973 47.155-41.984 89.19-36.3 155.495 3.276 29.388 10.035 53.76 20.172 81.612 4.66 12.75 14.592 32.922 24.064 46.336 28.263 39.936 91.392 91.136 179.354 110.848 15.36 2.1 32.768 1.024 49.152-3.379 43.366-13.158 131.789-44.237 131.789-44.237s-78.49 6.503-114.432 2.919c-8.346-1.28-17.51-1.741-23.296-7.424-1.024-1.229-4.506-8.346-2.253-8.448 3.123-.051 12.083-3.789 25.856-5.018-29.44-3.174-29.03-3.072-31.181-8.499a337 337 0 0 0-13.722-29.696c12.954 1.126 41.626 2.714 51.303-7.322 0 0-16.896 1.946-31.949.205a92 92 0 0 1-16.23-4.608c-6.708-2.611-12.288-3.43-13.517-5.12-2.355-5.99-3.943-7.936-6.759-15.923-3.84-10.547-4.096-22.323-4.864-33.075 9.78 12.083 22.324 22.22 38.861 27.443.205-.46 21.453 9.216 36.864 4.25l3.226-1.024c0 .256-10.24.87-13.978-.973-31.385-13.312-36.096-24.986-41.165-30.823l-13.568-20.275c4.096-8.192 6.452-8.55 11.93-8.601 16.486 1.843 23.706 3.225 33.792.819 6.758 13.977 8.602 28.006 24.064 38.195 51.507 15.309 62.669-4.557 75.162-22.016 37.068 27.136 97.382 35.533 139.264.41 53.248-61.594 70.144-158.772 65.433-164.352-6.656-11.264-15.36-22.887-22.886-21.3-26.727 7.322-36.557 20.839-63.027 17.767 3.174-.205 8.448-.256 8.499-.563 2.048-22.426-.154-33.28-1.178-35.124-7.987-17.715-18.534-36.352-25.907-50.33-1.894-2.918-7.475-24.882-16.794-33.586-3.993-3.43-13.824-12.442-13.824-12.442l-.819 9.574s3.84.564 5.325 6.503c5.53 22.528 33.638 75.622 35.686 78.182 9.984 16.128 1.024 36.147 8.602 47.411.717 1.383 15.462-.153 26.88.512 18.74-3.993 17.92-12.288 34.202-13.516 10.905-.82 12.032 19.66 11.878 21.248-2.048 22.681-8.96 48.998-19.456 73.062-21.965 42.24-46.54 80.18-81.357 85.504-42.496 7.424-64.512-11.162-87.552-22.989l-8.857 7.527c-29.901 29.798-65.434 27.136-79.975-11.776-7.219-15.104-16.64-24.372-24.73-37.376l-42.803 30.873c-3.584 7.322-7.987 18.842-13.312 31.744a105.5 105.5 0 0 0-6.604 37.069c-5.479 9.318 19.046 47.258 34.508 70.298l13.364 19.456c3.072 7.936 9.83 15.001 10.24 15.872 28.672 37.478-36.25 28.825-49.664 26.572-26.522-4.198-52.43-15.308-76.8-30.054l-4.199-2.611a444.3 444.3 0 0 1-78.182-64.615c-13.466-15.257-26.317-46.592-35.84-68.812-14.183-53.402-34.611-145.92 20.685-216.064 3.481-3.994 7.27-10.701 10.496-12.032 16.435-11.11 34.304-18.688 53.452-22.887l-1.945-12.441a358.6 358.6 0 0 0-50.944 18.944c-20.736 5.99-37.94 12.288-64.41 18.944-8.601 1.024-17.05 1.024-25.293-.103-18.995-2.56-51.404-.256-53.504-2.201-12.85-17.92-16.384-50.125-28.16-67.328l-.102-.205-.154-.154c-6.86-9.216-14.848-16.691-22.732-24.525-28.16-27.955-52.224-55.04-58.983-83.712-1.69-8.448-6.041-17.203-3.737-42.24v-.153l.102-.103c6.758-23.398 17.766-42.496 36.454-61.593 19.456.307 38.759.768 53.76 3.584 6.861 1.177 21.197 3.072 35.994 8.55 37.427 13.978 86.886 36.864 86.886 36.864-37.12-20.377-78.643-46.848-104.857-52.224-3.891-.512-6.298-2.304-7.424-5.427 39.424-23.142 46.592-50.432 72.55-74.906 11.879-5.12 16.487-7.782 26.573-8.857 93.133 14.694 151.757 51.814 198.144 76.595 18.842 10.24 35.942 17.971 52.275 27.34 14.336 4.711 57.549 37.377 70.247 54.938 12.8 27.136 22.22 56.423 30.77 84.736 6.145 28.775 11.52 40.448 11.52 40.448s-5.222-24.064-4.351-28.416c5.427 2.048 18.227 6.042 23.552 5.428 0 0-23.706-12.288-26.829-23.04-9.933-34.765-19.968-88.781-22.63-91.597-7.578-9.523-39.22-33.792-58.624-44.954-7.322-4.25-11.264-6.86-11.623-8.704 6.195-6.297 13.824-14.592 20.736-19.814 6.554-5.069 12.544-10.752 21.76-14.183 40.295-18.124 63.335 7.015 68.813 1.895 0 0-8.704-9.933-4.813-8.295 3.943 2.15 16.794 4.66 18.227 5.99 14.695 11.47 53.095 53.454 76.237 97.793 5.581 10.854 7.834 18.022 5.223 31.078-2.56 13.107-4.608 20.275-7.373 29.03-2.56 5.837-16.999 45.825-16.896 51.2-2.919 21.965 9.37 49.46 9.37 49.46.153-7.475-.461-11.469.255-16.794l.82-9.523s-.512-2.56-.461-3.584c.665-6.554 2.253-12.083 2.713-15.872 4.608-28.672 12.698-49.306 21.812-74.445 2.713-6.349 6.246-9.881 6.092-14.694.154-8.602-7.526-20.07-13.056-31.335-5.632-11.366-12.288-24.064-21.094-37.376-19.968-28.774-37.069-51.302-68.3-65.382-8.705-3.84-43.111-7.578-54.99-5.376-14.387 3.02-26.777 5.99-36.659 12.288-15.565 9.984-27.75 25.395-42.086 34.458-31.744-15.872-47.002-27.7-49.869-29.338-18.842-10.086-41.472-21.811-65.74-32.922-11.674-10.905-84.122-36.864-150.426-42.086h-.052zm405.402 591.104c-19.558-15.257-35.994-31.027-46.848-47.155-3.533 18.995-16.384 32.563-26.317 45.875-1.945 3.123-3.379 7.424 6.349 20.992 2.611 3.635 12.134 4.25 18.534 3.943-6.502-4.967-16.435-10.138-18.022-14.695 11.469 7.834 22.016 10.087 31.642 8.807 2.201-.256 4.915-2.56 7.014-6.144 4.3-9.216 7.68-11.418 11.008-13.876l7.834 9.728z"/></svg>