<svg xmlns="http://www.w3.org/2000/svg" width="209.961" height="200" class="icon" viewBox="0 0 1075 1024"><path fill="#fff" d="M551.629 505.907a49.7 49.7 0 0 0-21.248-3.993c-21.76 0-33.28 17.766-33.28 37.888v70.45h-33.792V472.116H497.1v15.463c7.475-12.032 21.248-17.204 31.59-17.767a42.96 42.96 0 0 1 22.938 3.43zm-539.546-93.44h35.021v197.786h-35.02zm291.84 88.883H266.65v108.954h-33.792V501.35h-17.204v-29.235h17.204v-11.469c0-29.235 20.633-48.128 53.862-48.128h17.203v29.184h-9.216c-22.886 0-28.057 8.602-28.057 27.546v2.867h37.273zm138.752 39.578c0 40.704-25.241 72.192-67.635 72.192-43.008 0-68.25-31.488-68.25-72.192 0-41.318 25.242-71.117 68.25-71.117 42.394 0 67.635 29.799 67.635 71.117m-33.28 0c0-22.374-9.165-42.445-34.355-42.445-25.805 0-34.97 20.634-34.97 42.445 0 22.886 8.602 43.008 34.97 43.008 25.805 0 34.406-20.122 34.406-43.008zm-208.077 69.325h-33.894v-75.674c0-20.07-6.912-33.792-27.546-33.229-17.766 0-29.184 11.47-29.184 34.407v74.547H76.851v-138.24h33.792v10.342c9.728-8.601 24.064-12.595 37.274-12.595 32.717 0 53.35 21.811 53.35 54.477v86.016zm398.439 0v-81.92c0-15.514 2.304-26.983 17.203-26.983 9.216 0 14.336 4.608 14.336 21.76v87.194h33.792v-82.022c0-15.463 2.355-26.932 17.254-26.932 9.165 0 14.336 4.608 14.336 21.76v87.194h33.792V509.952a39.58 39.58 0 0 0-10.29-28.672 41.98 41.98 0 0 0-30.977-11.469 50.7 50.7 0 0 0-32.102 10.906c-9.165-8.602-17.767-10.906-29.235-10.906a39.94 39.94 0 0 0-28.11 11.469v-9.216h-33.791v138.24h33.792z"/><path fill="#d35d35" d="M819.354 450.867c12.032 0 21.196-9.165 21.196-20.633a20.685 20.685 0 0 0-21.196-20.634 20.582 20.582 0 1 0 0 41.267m.563 55.04-26.931 70.554a81 81 0 0 0-3.43 10.905c-1.127 5.12 1.74 5.735 5.12 3.994 9.778-4.045 21.247-21.197 26.418-27.546l4.608 2.304c-10.342 18.944-29.85 47.616-53.913 47.616-10.906 0-17.203-7.475-17.767-17.203-.614-8.601 2.868-16.64 5.12-24.064l25.805-66.56a276 276 0 0 0 4.045-11.469c.512-4.608-2.304-5.12-5.734-3.43-9.728 4.045-21.248 21.248-26.368 27.546l-4.608-2.304c10.905-18.944 30.412-47.616 54.476-47.616 10.292 0 15.463 4.608 17.204 12.646 1.126 5.734 0 13.773-4.045 24.627"/><path fill="#3b68af" d="m825.702 610.304 67.584-10.906-55.552-4.044 65.895-10.292-55.603-5.17 65.945-9.729-55.603-5.171 66.509-9.216-56.218-6.86 66.56-7.425-65.997-8.038 56.218-6.912-65.946-8.602 56.167-5.683-65.895-9.728 55.604-4.608-65.383-10.342 55.655-3.994-67.072-11.469h76.236l25.805 39.527 25.19-39.527h43.623l-48.18 68.813 52.174 69.325h-43.572l-29.235-42.394-29.85 42.394h-75.059zm190.31-139.93h3.994c3.482 0 4.608-1.126 4.608-2.867s-1.126-2.304-3.993-2.304h-4.608zm5.12-6.86c4.097 0 6.35 1.126 6.35 3.993 0 1.741-.564 2.304-2.304 3.43l.614.564.512 1.177c.614.564.614 1.127.614 2.304v1.127l.564.563v1.74h-2.304c-.512-.562-.512-.562-.512-2.303 0-3.43-.615-3.994-4.608-3.994h-4.045v6.298h-2.253v-14.9h7.475zm-13.72 7.424c0 6.912 5.734 12.646 13.209 12.646a12.75 12.75 0 0 0 12.595-12.646 12.29 12.29 0 0 0-12.595-12.032c-7.475 0-13.21 5.17-13.21 12.032m28.671 0c0 8.038-6.86 14.336-15.462 14.336s-15.514-6.298-15.514-14.336c0-7.988 6.912-14.336 15.514-14.336s15.462 6.348 15.462 14.336"/></svg>