<svg xmlns="http://www.w3.org/2000/svg" width="200" height="200" class="icon" viewBox="0 0 1024 1024"><path fill="#157997" d="M946.761 240.884a12.34 12.34 0 0 0-8.484-2.926c-8.485 0-19.456 5.852-25.357 9.021l-2.291 1.22a78.9 78.9 0 0 1-31.696 8.191c-11.215.341-20.919 1.024-33.548 2.39-74.8 7.85-108.154 66.608-140.288 123.367-17.554 30.964-35.596 63.05-60.367 87.576a164 164 0 0 1-16.335 14.141c-25.6 19.554-57.832 33.5-82.896 43.398-24.088 9.412-50.42 17.896-75.873 26.137-23.308 7.51-45.3 14.628-65.536 22.333-9.119 3.413-16.872 6.095-23.698 8.436-18.432 6.144-31.696 10.825-51.2 24.527a331 331 0 0 0-20.285 15.311c-15.41 12.63-29.062 27.307-40.521 43.788-9.9 15.116-21.31 29.16-34.085 41.838-4.096 4.145-11.362 6.144-22.235 6.144-12.776 0-28.234-2.682-44.618-5.559-16.871-3.072-34.328-5.949-49.25-5.949-12.19 0-21.454 2-28.427 6.095 0 0-11.703 7.022-16.628 16.092l4.876 2.194a100.5 100.5 0 0 1 20.675 15.311 101.2 101.2 0 0 0 21.553 15.702 19.3 19.3 0 0 1 6.631 4.34c-2.048 3.072-5.022 7.021-8.143 11.215-17.261 23.162-27.355 37.79-21.601 45.787 2.78 1.463 5.851 2.194 8.972 2.048 37.644 0 57.88-9.996 83.48-22.674 7.412-3.706 14.97-7.46 23.894-11.362 15.018-6.68 31.11-17.261 48.176-28.477 22.382-14.92 45.739-30.232 68.413-37.644a181.3 181.3 0 0 1 57.54-8.29c23.941 0 49.151 3.268 73.435 6.486 18.09 2.39 36.864 4.876 55.296 5.949 7.119.488 13.75.683 20.187.683 8.582 0 17.213-.488 25.747-1.414l2.096-.732c12.873-8.094 18.92-25.551 24.771-42.423 3.804-10.825 6.973-20.577 11.996-26.819a8 8 0 0 1 .975-.78 1.17 1.17 0 0 1 1.463.244v.487c-3.023 65.927-28.916 107.764-55.101 145.018l-17.554 19.213s24.527 0 38.473-5.51c50.858-15.604 89.234-49.884 117.223-104.644a452 452 0 0 0 18.432-43.203c.488-1.219 4.877-3.51 4.486 2.829-.195 1.901-.292 3.998-.438 6.144 0 1.316 0 2.633-.244 3.9-.732 9.265-2.828 28.673-2.828 28.673l15.701-8.631c37.888-24.528 67.096-73.972 89.234-150.967 9.216-32.086 15.994-63.878 21.943-91.965 7.12-33.743 13.263-62.61 20.285-73.874 11.02-17.555 27.892-29.453 44.178-41.01 2.243-1.56 4.486-3.071 6.68-4.73 20.48-14.774 40.863-31.743 45.35-63.487v-.732c3.266-23.649.487-29.696-2.634-32.426"/></svg>