<svg xmlns="http://www.w3.org/2000/svg" width="209.961" height="200" class="icon" viewBox="0 0 1075 1024"><path fill="#edf4ff" d="M626.688 204.8h1.178c-135.117 0-225.946 77.824-225.946 230.963v93.338a125.7 125.7 0 0 1 44.032-10.24 86.07 86.07 0 0 1 44.288 10.24v-93.338c0-98.611 54.58-150.63 136.96-150.63s136.909 52.019 136.909 150.63V674.51h88.371V435.712c0-153.037-91.29-230.912-225.792-230.912"/><path fill="#018bff" d="M440.934 562.893a61.85 61.85 0 0 0-44.236 15.513L313.6 524.134a54.4 54.4 0 0 0 2.714-20.838 75.315 75.315 0 1 0-75.264 75.11c16.128.922 32-4.608 44.032-15.513l83.046 57.037c-2.048 6.758-2.867 13.772-2.509 20.787-.41 7.014.461 14.08 2.56 20.787l-83.097 57.293a70.14 70.14 0 0 0-44.032-15.77 75.315 75.315 0 1 0 75.264 75.315 54.3 54.3 0 0 0-2.714-20.787l83.098-57.037c12.492 10.138 28.16 15.616 44.236 15.514a75.11 75.11 0 0 0 75.11-75.315 77.363 77.363 0 0 0-75.11-77.824"/></svg>