<svg xmlns="http://www.w3.org/2000/svg" width="200" height="200" class="icon" viewBox="0 0 1024 1024"><path fill="#5d88d6" d="M572.928 238.694a36.096 36.096 0 1 0-51.098-51.046 36.096 36.096 0 0 0 51.047 51.046zM674.97 340.787a40.09 40.09 0 1 0-56.679-56.73 40.09 40.09 0 0 0 56.679 56.73M777.062 442.88a44.134 44.134 0 1 0-62.361-62.362 44.134 44.134 0 0 0 62.361 62.362m101.99 101.99a48.128 48.128 0 1 0-68.095-68.096 48.128 48.128 0 0 0 68.096 68.096"/><path fill="#32dbfc" d="M371.712 235.878a32.102 32.102 0 1 0-45.414-45.414 32.102 32.102 0 0 0 45.414 45.414M473.754 337.92a36.096 36.096 0 1 0-51.098-50.995 36.096 36.096 0 0 0 51.098 51.046zm101.99 102.042a40.09 40.09 0 1 0-56.73-56.73 40.09 40.09 0 0 0 56.73 56.73m102.042 102.041a44.134 44.134 0 1 0-62.413-62.413 44.134 44.134 0 0 0 62.413 62.413m102.092 102.093a48.128 48.128 0 1 0-68.096-67.994 48.128 48.128 0 0 0 68.096 68.045z"/><path d="M170.496 233.165a28.109 28.109 0 1 0-39.68-39.731 28.109 28.109 0 0 0 39.731 39.73zm101.99 101.939a32.102 32.102 0 1 0-45.363-45.414 32.102 32.102 0 0 0 45.363 45.414M374.58 437.248a36.096 36.096 0 1 0-51.046-51.098 36.096 36.096 0 0 0 51.046 51.098M476.672 539.29a40.09 40.09 0 1 0-56.832-56.73 40.09 40.09 0 0 0 56.73 56.678zm101.94 102.041a44.134 44.134 0 1 0-62.362-62.413 44.134 44.134 0 0 0 62.361 62.413m102.04 101.888a48.128 48.128 0 1 0-68.095-68.096 48.128 48.128 0 0 0 68.096 68.096"/><path fill="#5d88d6" d="M371.712 632.678a32.102 32.102 0 1 0-45.414-45.414 32.102 32.102 0 0 0 45.414 45.414M249.805 741.274a32.102 32.102 0 1 0 0-64.205 32.102 32.102 0 0 0 0 64.205M150.63 840.55a32.102 32.102 0 1 0 0-64.204 32.102 32.102 0 0 0 0 64.204m198.35-.05a32.102 32.102 0 1 0 0-64.206 32.102 32.102 0 0 0 0 64.205m221.132-9.37a32.102 32.102 0 1 0-45.414-45.364 32.102 32.102 0 0 0 45.414 45.364m-99.226-99.277a32.102 32.102 0 1 0-45.363-45.415 32.102 32.102 0 0 0 45.363 45.415"/></svg>