<svg xmlns="http://www.w3.org/2000/svg" width="200" height="200" class="icon" viewBox="0 0 1024 1024"><path fill="#29b5e8" d="M395.418 524.8a43.264 43.264 0 0 0-19.968-50.688L226.61 388.608a43.88 43.88 0 0 0-59.853 16.026 43.315 43.315 0 0 0 16.026 59.545l83.2 47.821-83.149 47.718a43.52 43.52 0 0 0-16.025 59.648 43.88 43.88 0 0 0 59.852 15.872l148.736-85.504a43.37 43.37 0 0 0 19.968-24.934zm40.345 80.128a43.26 43.26 0 0 0-25.446 5.683l-148.839 85.453a43.622 43.622 0 1 0 43.776 75.571l83.456-47.872v95.693c0 24.064 19.559 43.622 43.828 43.622a43.725 43.725 0 0 0 43.776-43.622v-171.06a43.62 43.62 0 0 0-40.55-43.468m152.474-185.856a43.78 43.78 0 0 0 25.344-5.734l148.838-85.504a43.57 43.57 0 0 0 16.026-59.648 43.88 43.88 0 0 0-59.75-15.924l-83.354 47.924v-95.744a43.725 43.725 0 0 0-43.879-43.52 43.674 43.674 0 0 0-43.776 43.52v171.11c0 22.938 17.818 41.83 40.55 43.52m-326.759-91.29 148.839 85.504c8.038 4.608 16.896 6.4 25.446 5.684a43.776 43.776 0 0 0 40.55-43.52V204.442a43.725 43.725 0 0 0-43.775-43.572 43.725 43.725 0 0 0-43.879 43.52v95.744l-83.405-47.923a43.88 43.88 0 0 0-59.801 15.923 43.57 43.57 0 0 0 16.025 59.648M541.235 511.59a13 13 0 0 0-3.277-7.782l-17.92-17.766a12.7 12.7 0 0 0-7.73-3.175h-.718a12.54 12.54 0 0 0-7.68 3.175l-17.92 17.766a12.7 12.7 0 0 0-3.174 7.782v.717c0 2.458 1.382 5.888 3.174 7.68l17.92 17.767a12.54 12.54 0 0 0 7.68 3.225h.717a12.65 12.65 0 0 0 7.731-3.225l17.92-17.767a12.65 12.65 0 0 0 3.277-7.68zm49.46 17.101-61.901 61.491a12.34 12.34 0 0 1-7.732 3.277h-18.278a12.6 12.6 0 0 1-7.731-3.277l-61.85-61.49a12.4 12.4 0 0 1-3.225-7.68v-18.126c0-2.56 1.433-6.041 3.225-7.782l61.901-61.44a12.5 12.5 0 0 1 7.731-3.226h18.227c2.56 0 5.99 1.383 7.783 3.226l61.85 61.491a12.6 12.6 0 0 1 3.174 7.783v18.124a12.44 12.44 0 0 1-3.175 7.68zm171.724 167.322L613.581 610.56a43.16 43.16 0 0 0-25.344-5.632 43.62 43.62 0 0 0-40.55 43.418v171.008c0 24.115 19.558 43.673 43.775 43.673a43.725 43.725 0 0 0 43.879-43.622V723.66l83.353 47.923a43.674 43.674 0 1 0 43.776-75.571zm78.695-231.936L758.016 512l83.098 47.718a43.52 43.52 0 0 1 16.025 59.648 43.93 43.93 0 0 1-59.801 15.872l-148.89-85.504a43.26 43.26 0 0 1-21.811-39.116 43.78 43.78 0 0 1 21.862-36.455l148.839-85.504a43.93 43.93 0 0 1 59.801 15.975 43.366 43.366 0 0 1-16.025 59.545z"/></svg>