<svg xmlns="http://www.w3.org/2000/svg" width="200" height="200" class="icon" viewBox="0 0 1024 1024"><path fill="#a9303c" d="m348.826 419.84 4.864 1.638a79 79 0 0 1-.615-2.048l-1.894-4.864c-1.28-3.43-2.56-6.81-3.584-10.24a32.1 32.1 0 0 1-1.178-11.724 98.3 98.3 0 0 1 3.789-16.59 20 20 0 0 1 4.352-8.55c5.325-5.068 10.957-9.83 16.896-14.182 7.885-5.94 16.077-11.571 24.269-17.152a254 254 0 0 1 36.25-20.224 410 410 0 0 1 24.934-10.291 192.8 192.8 0 0 1 68.505-12.647 143.2 143.2 0 0 1 64.103 12.903c11.059 5.12 20.992 11.878 30.208 19.763 8.704 7.475 15.616 16.64 21.913 26.317 7.168 10.957 12.032 22.937 16.026 35.328 1.28 4.045 2.048 8.192 2.867 12.441l.973 4.762 1.946 9.83.87 4.455c.358 1.945 1.382 2.765 3.533 2.765h50.637c1.894 0 2.764-.922 3.072-2.407a16.2 16.2 0 0 0 .307-6.502c-.512-5.223-.922-10.496-1.792-15.667a316 316 0 0 0-4.096-20.839 159.6 159.6 0 0 0-18.432-46.49 138.4 138.4 0 0 0-57.754-53.81 130.2 130.2 0 0 0-36.454-12.442 95.3 95.3 0 0 0-18.535-2.97l-4.608-.102c-12.339-.359-24.78-.717-37.222 1.024a247 247 0 0 0-40.038 8.704c-28.16 8.704-54.375 21.555-79.002 37.683a357 357 0 0 0-41.472 30.976c-6.349 5.632-12.544 11.418-18.74 17.254l-5.324 5.018a47 47 0 0 0-2.867 3.072c-1.741 1.894-3.482 3.84-5.632 5.069a47.1 47.1 0 0 1-26.01 6.553 59.5 59.5 0 0 1-18.944-4.864c-.614-.256-1.331-.204-2.048-.153l-1.024.051c.103 1.024.205 2.048.461 3.072.512 1.792 1.126 3.584 1.74 5.376 1.28 3.635 2.51 7.27 3.226 10.957a40.65 40.65 0 0 1-2.252 20.736l-3.584 10.393 3.225-1.075 4.045-1.433c5.734-2.1 11.725-3.584 17.818-4.301.768-.103 1.587 0 2.406.205a220 220 0 0 1 8.294 1.484c3.84 1.178 7.68 2.458 11.623 3.79zm30.566 380.109 8.5.717 9.42-.82A231.8 231.8 0 0 0 456.09 789.3c16.588-4.915 32.512-11.571 48.128-19.2a360.5 360.5 0 0 0 58.726-36.045 471 471 0 0 0 60.262-54.17 224 224 0 0 0 15.36-17.92c7.68-9.88 15.156-19.865 22.682-29.9l.666-.922c1.894-2.56 1.587-4.25-1.024-5.888a7.17 7.17 0 0 0-3.584-.87H640c-10.752 0-21.606 0-32.41-.205-5.273-.102-8.806 1.178-12.288 5.632-5.376 6.963-11.264 13.466-17.203 19.968l-6.349 7.066c-10.752 12.134-23.04 22.733-35.686 32.768a317.6 317.6 0 0 1-54.272 35.02 247 247 0 0 1-67.02 23.809l-.769.153a230 230 0 0 1-26.829 3.891 160.3 160.3 0 0 1-36.352-1.382 140.1 140.1 0 0 1-47.616-16.077 127.7 127.7 0 0 1-33.382-27.75 132 132 0 0 1-23.962-42.752c-1.74-4.864-2.867-9.933-3.993-15.002l-.256-1.024c-.717-3.277-1.28-6.605-1.895-9.881a340 340 0 0 0-1.228-6.708 19.5 19.5 0 0 0-1.536-5.12c-1.28-2.56-2.816-2.457-5.12-.716-1.792 1.33-1.639 2.918-1.434 4.608l.051.921c.205 2.867.307 5.786.461 8.653.307 6.758.614 13.568 1.382 20.275 1.895 15.667 5.172 31.079 11.264 45.722 2.919 7.014 5.837 14.08 9.472 20.736 5.018 9.165 11.316 17.408 18.228 25.395a128 128 0 0 0 27.904 24.013c18.432 11.776 38.553 19.149 60.313 21.709 6.656.768 13.363 1.28 19.917 1.843"/><path fill="#4550ff" d="M852.94 613.376h-49.254c-4.096 0-5.939-2.15-4.812-6.042 1.536-5.222 3.276-10.393 4.864-15.616l3.737-12.492 5.94-18.74c1.791-5.888 3.43-11.776 5.273-17.612 2.253-7.476 4.608-14.9 6.963-22.375l5.069-16.589 7.475-23.91c1.69-5.53 3.175-11.11 4.864-16.691l7.68-24.115c.717-2.304 2.1-3.072 4.352-3.072h107.52c6.963 0 13.722 1.075 19.968 4.044 8.192 3.84 13.927 9.933 15.872 19.15.461 2.047 1.843 4.095 1.741 6.143-.512 7.68-2.56 15.258-5.786 22.221a63.1 63.1 0 0 1-17.1 20.89c-1.946 1.69-4.455 2.816-6.708 4.198l-.768.256c-2.252 1.28-4.761 2.867-4.71 5.632 0 2.714 2.202 4.3 4.608 5.837a25.7 25.7 0 0 1 12.032 14.694 29.7 29.7 0 0 1 .973 14.439c-1.383 6.604-3.38 13.312-6.349 19.302-8.192 16.691-21.248 28.416-38.81 34.611-5.734 2.048-11.98 2.765-18.022 3.687-23.091 3.532-46.387 1.536-66.611 2.15m40.244-74.138v-.41c-4.352 0-8.704.257-13.107-.05-3.533-.256-5.376 1.536-6.503 4.812-2.56 7.732-4.864 15.463-7.321 23.194-1.946 6.349 0 9.062 6.656 9.114 5.683 0 11.469.102 17.152-.052 6.912-.204 13.824 0 20.633-1.843 7.783-2.048 18.484-12.237 17.562-23.757a9.93 9.93 0 0 0-4.403-7.68 22 22 0 0 0-12.442-3.328c-6.041-.204-12.134 0-18.227 0m20.02-68.915v.512H901.12c-4.096 0-6.144 1.536-7.27 5.427-1.383 4.762-2.868 9.472-4.199 14.285-.921 3.43-2.048 6.861-2.355 10.394s1.536 4.915 5.018 4.915c5.58-.051 11.161.154 16.69-.102 5.12-.154 10.24-.564 15.258-1.23 10.138-1.433 16.23-9.42 17.92-18.636 1.485-8.09-1.74-12.902-9.83-13.978-6.349-.87-12.8-1.075-19.149-1.536zM545.996 613.376c-8.704 0-17.306-.102-26.01 0-2.201 0-3.481-.922-4.25-2.918a22527 22527 0 0 0-29.9-79.668c-.615-1.587-1.536-3.43-2.867-4.3-3.021-1.997-6.656-.052-7.783 3.532l-10.342 33.946c-2.304 7.68-4.506 15.36-6.861 23.04a763 763 0 0 1-7.782 23.86 3.84 3.84 0 0 1-2.612 2.15 69 69 0 0 1-8.448.307l-36.044-.103c-1.076 0-2.202-.204-3.328-.256-2.304-.153-3.277-1.382-2.816-3.584a133 133 0 0 1 2.406-9.881c2.304-7.885 4.66-15.719 7.066-23.552 2.816-9.063 5.683-18.074 8.448-27.136l6.656-21.76 5.99-19.2c2.304-7.475 4.454-15.002 6.758-22.477 1.792-5.888 3.892-11.725 5.735-17.613 1.638-5.325 3.072-10.752 4.659-16.077l3.891-12.85c.615-1.946 2.048-2.868 4.096-2.868h48.64c1.536 0 2.663.41 3.328 2.1 2.355 6.348 4.864 12.594 7.27 18.943l13.364 35.226 9.83 26.419a12.8 12.8 0 0 0 1.639 3.226c2.764 3.635 6.656 3.328 8.652-.87 1.024-2.305 1.946-4.711 2.663-7.169 2.253-7.577 4.403-15.206 6.707-22.733a5702 5702 0 0 1 15.718-50.79c1.178-3.789 1.639-4.25 5.632-4.25 16.077-.05 32.256-.102 48.333-.05 2.355 0 3.994 1.535 3.635 3.89a55 55 0 0 1-1.894 7.936l-10.803 35.79c-3.84 12.39-7.783 24.78-11.571 37.17-2.407 7.834-4.608 15.719-6.964 23.552-3.225 10.496-6.553 20.89-9.728 31.335-2.816 9.062-5.478 18.125-8.243 27.187l-2.304 7.68c-.665 2.355-2.509 2.662-4.608 2.662h-25.958v.103zM269.568 435.968h23.194c3.84 0 5.58 2.406 4.403 6.144l-14.336 46.592c-4.403 14.387-8.704 28.774-13.056 43.213-1.895 6.297-3.789 12.595-5.427 18.944-2.56 9.881 3.02 22.118 14.694 23.859 11.315 1.69 22.118.717 31.693-6.144a39.63 39.63 0 0 0 15.257-19.814c3.43-10.24 6.4-20.685 9.626-30.976l8.704-27.034c1.638-5.325 3.072-10.752 4.71-16.18l7.168-23.142c1.23-3.89 2.458-7.782 3.584-11.724.768-2.765 1.844-3.687 4.66-3.687h48.384c3.072 0 4.966 2.304 4.096 5.223-3.38 11.264-6.861 22.374-10.24 33.587-3.584 11.622-6.912 23.296-10.548 34.867-4.505 14.54-8.704 29.184-14.028 43.418a80.4 80.4 0 0 1-14.95 25.241c-3.175 3.584-6.042 7.475-9.524 10.701a92.16 92.16 0 0 1-38.042 22.528c-16.742 4.608-33.792 5.837-51.097 4.506-7.322-.512-14.643-1.024-22.016-1.741a59 59 0 0 1-8.243-1.639 44.44 44.44 0 0 1-18.381-8.038 43.8 43.8 0 0 1-9.011-10.957 36.05 36.05 0 0 1-5.684-18.125c-.204-5.222.154-10.444.41-15.616.512-10.752 3.942-20.89 7.373-31.027 1.945-5.785 3.43-11.776 5.222-17.613 1.843-5.888 3.891-11.776 5.735-17.715 1.69-5.53 3.225-11.11 4.915-16.64 1.894-6.144 3.942-12.288 5.837-18.483 1.638-5.376 3.328-10.752 4.71-16.18 1.331-5.17 2.56-6.246 7.885-6.143h22.374v-.205zm-132.352-3.482c9.37.82 18.432 1.28 27.392 2.56 7.117 1.024 14.029 3.175 20.275 6.964 7.68 4.71 11.93 11.724 13.773 20.428 1.331 6.144 1.792 12.135.358 18.279-.614 2.56-1.382 4.198-4.352 4.352-5.222.205-10.393.819-15.616 1.126a1920 1920 0 0 1-29.747 1.536c-4.813.256-5.478-.46-6.144-5.12l-.512-4.352c-.717-6.246-4.25-10.035-10.137-11.776a31.59 31.59 0 0 0-26.47 2.919c-4.609 2.764-7.886 6.707-7.937 12.646-.051 3.328 1.28 5.888 4.096 7.168 3.943 1.69 8.039 3.072 12.288 4.25 4.352 1.28 8.96 2.048 13.312 3.379 8.192 2.406 16.384 4.761 24.423 7.629 10.29 3.584 19.302 9.318 25.292 18.688 2.663 3.942 4.096 8.55 4.096 13.312v.204c1.024 11.623-2.406 22.119-7.68 32.205-4.812 9.216-11.366 17.357-19.302 24.064-10.24 8.704-22.272 15.155-35.226 18.79a132.8 132.8 0 0 1-47.513 4.353c-6.81-.512-13.773-.512-20.48-1.792-11.52-2.15-22.938-5.12-30.72-15.156a30.05 30.05 0 0 1-6.298-14.643c-.768-6.349-.87-12.8-1.024-19.2 0-2.56.359-5.12 1.075-7.577.308-1.024 1.792-2.304 2.816-2.356 11.11-.87 22.221-1.484 33.28-2.15 4.813-.307 9.626-.768 14.388-1.024 3.276-.205 5.376 1.74 5.478 4.966.102 2.714 0 5.479.102 8.192.205 5.07 4.864 13.005 11.367 14.9 10.342 3.072 20.582 2.867 30.105-2.612 6.656-3.84 11.674-9.37 12.75-17.356.562-4.199-1.434-7.783-4.609-10.65a31.5 31.5 0 0 0-13.056-6.144c-8.294-2.458-16.64-4.506-24.883-7.014a77 77 0 0 1-22.733-10.599c-5.939-4.3-11.52-9.216-13.568-16.537a43.4 43.4 0 0 1-1.433-13.62c.563-10.854 4.812-20.428 11.264-29.03 6.041-8.192 13.414-15.002 22.323-20.122 9.42-5.376 19.353-9.625 30.105-11.161 9.728-1.383 19.559-2.048 29.133-2.919zm513.843 180.532h-40.397c-5.12-.103-6.4-1.946-4.915-7.168 2.202-7.476 4.608-14.95 6.963-22.426l6.298-20.787 7.168-23.552 9.933-32.256 8.857-28.928 8.295-27.443c1.126-3.636 2.355-7.27 3.43-10.957.717-2.355 2.15-3.43 4.66-3.38 5.631.103 11.161 0 16.742 0 24.883 0 49.766-.05 74.65.154 10.086.103 19.814 1.997 28.876 6.861a40.4 40.4 0 0 1 19.61 23.962c3.891 11.776 3.328 23.756 1.536 35.84-2.355 16.281-7.68 31.59-14.183 46.592a107.4 107.4 0 0 1-29.081 39.27 91.65 91.65 0 0 1-31.027 18.125c-13.67 4.505-27.648 6.451-41.882 6.4h-35.533zm61.184-137.524h-9.113c-2.15 0-3.328 1.178-3.943 3.072l-1.894 6.042c-1.639 5.632-3.175 11.162-4.864 16.742-2.304 7.578-4.813 15.053-7.168 22.63-2.97 9.626-5.837 19.252-8.704 28.878a832 832 0 0 0-4.455 15.001c-.614 2.253 1.434 5.325 3.738 5.479 10.547.768 21.043.512 31.386-1.536 10.188-1.946 17.356-8.602 22.886-16.948 4.608-7.014 7.885-14.745 10.496-22.732 3.891-11.879 7.424-23.757 7.117-36.506-.205-9.318-4.301-14.285-12.595-17.152a54.3 54.3 0 0 0-22.887-2.97"/></svg>